<svg version="1.1" preserveAspectRatio="none" xmlns="http://www.w3.org/2000/svg" width="500" height="500" viewBox="0 0 500 500"><rect width="100%" height="100%" fill="#121212" fill-opacity="1"/><svg viewBox="715.7294 935.9259 282.2589 360.8611" width="260.46646119518005" height="333" x="119.7668px" y="83.5px" xmlns="http://www.w3.org/2000/svg" xmlns:xlink="http://www.w3.org/1999/xlink" preserveAspectRatio="none"><defs></defs><style>.companyName {fill:#E3E3E3;fill-opacity:1;}.icon1 {fill:#F1EC40;fill-opacity:1;}.icon2 {fill:#555555;fill-opacity:1;}.icon3 {fill:#AAAAAA;fill-opacity:1;}.icon3-str {stroke:#AAAAAA;stroke-opacity:1;}.text {fill:#E3E3E3;fill-opacity:1;}</style><g opacity="1" transform="rotate(0 736.1675 1270.387)">
<svg width="241.3827" height="26.4" x="736.1675" y="1270.387" version="1.1" preserveAspectRatio="none" viewBox="1.56 -27.28 324.76000000000005 35.519999999999996">
  <g transform="matrix(1 0 0 1 0 0)" class="text"><path id="id-6izo4zJp14" d="M15.04-2.60L15.04-2.60Q17.88-2.60 20.02-4.04Q22.16-5.48 23.20-7.92L23.20-7.92L26.36-7.92Q25.04-4.16 22-2L22-2Q18.76 0.32 14.36 0.32L14.36 0.32Q8.56 0.32 4.96-3.64L4.96-3.64Q1.56-7.44 1.56-13.24Q1.56-19.04 4.96-22.84L4.96-22.84Q8.56-26.80 14.36-26.80L14.36-26.80Q18.76-26.80 22-24.48L22-24.48Q25.04-22.32 26.36-18.56L26.36-18.56L23.20-18.56Q22.16-21 20.02-22.44Q17.88-23.88 15.04-23.88Q12.20-23.88 10.32-23.06Q8.44-22.24 7.16-20.80L7.16-20.80Q4.56-17.88 4.56-13.24L4.56-13.24Q4.56-8.60 7.16-5.68L7.16-5.68Q9.88-2.60 15.04-2.60Z M44.56-20.32L44.76-20.32L44.76-17.32L44.40-17.32Q41.16-17.32 39.12-14.72L39.12-14.72Q37.20-12.24 37.20-8.80L37.20-8.80L37.20 0L34.20 0L34.20-20L37.20-20L37.20-15.08Q38.16-18.20 41.36-19.68L41.36-19.68Q42.68-20.32 44.56-20.32L44.56-20.32Z M60.40-2.40L60.40-2.40Q64.44-2.40 66.20-5.76L66.20-5.76L69.48-5.76Q68.44-3.04 66.18-1.36Q63.92 0.32 60.36 0.32L60.36 0.32Q55.84 0.32 53-2.68L53-2.68Q50.24-5.60 50.24-10L50.24-10Q50.24-14.44 52.88-17.32L52.88-17.32Q55.68-20.32 60.16-20.32L60.16-20.32Q64.64-20.32 67.44-17.32L67.44-17.32Q70.08-14.44 70.08-10L70.08-10L70.08-8.80L53.32-8.80Q53.64-6.04 55.52-4.24L55.52-4.24Q57.44-2.40 60.40-2.40ZM60.16-17.60L60.16-17.60Q57.40-17.60 55.52-15.88L55.52-15.88Q53.76-14.24 53.36-11.60L53.36-11.60L66.96-11.60Q66.56-14.24 64.80-15.88L64.80-15.88Q62.92-17.60 60.16-17.60Z M93.36 0L93.36-3.20Q90.96 0.32 86.20 0.32L86.20 0.32Q81.88 0.32 79.16-2.68L79.16-2.68Q76.52-5.64 76.52-10L76.52-10Q76.52-14.36 79.16-17.32L79.16-17.32Q81.88-20.32 86.40-20.32Q90.92-20.32 93.36-16.76L93.36-16.76L93.36-20L96.36-20L96.36 0L93.36 0ZM86.60-2.40L86.60-2.40Q89.84-2.40 91.72-4.64L91.72-4.64Q93.52-6.76 93.52-10L93.52-10Q93.52-13.24 91.72-15.36L91.72-15.36Q89.84-17.60 86.60-17.60L86.60-17.60Q83.40-17.60 81.40-15.36L81.40-15.36Q79.52-13.24 79.52-10L79.52-10Q79.52-6.76 81.40-4.64L81.40-4.64Q83.40-2.40 86.60-2.40Z M110.72 0L107.72 0L107.72-17.36L103.64-17.36L103.64-20L107.72-20L107.72-27.16L110.72-27.16L110.72-20L115.32-20L115.32-17.36L110.72-17.36L110.72 0Z M122.60 0L122.60-20L125.60-20L125.60 0L122.60 0ZM122.48-27.28L125.72-27.28L125.72-23.36L122.48-23.36L122.48-27.28Z M134.80-20L137.80-20L137.80-16.88Q138.88-18.32 140.44-19.32Q142-20.32 144-20.32Q146-20.32 147.44-19.76Q148.88-19.20 149.96-18.08L149.96-18.08Q152.44-15.64 152.44-11.64L152.44-11.64L152.44 0L149.44 0L149.44-11.56Q149.44-14.32 147.88-15.96Q146.32-17.60 143.84-17.60L143.84-17.60Q141.32-17.60 139.56-15.92L139.56-15.92Q137.80-14.20 137.80-11.52L137.80-11.52L137.80 0L134.80 0L134.80-20Z M177.04-16.80L177.04-16.80L177.04-20L180.04-20L180.04-0.60Q180.04 3.72 177.58 5.98Q175.12 8.24 170.96 8.24Q166.80 8.24 164.46 6.64Q162.12 5.04 161.28 2.40L161.28 2.40L164.60 2.40Q165.88 5.52 170.44 5.52L170.44 5.52Q173.92 5.52 175.48 3.92Q177.04 2.32 177.04-0.80L177.04-0.80L177.04-3.56Q174.60 0 169.88 0L169.88 0Q165.56 0 162.84-2.96L162.84-2.96Q160.20-5.84 160.20-10.16L160.20-10.16Q160.20-14.48 162.84-17.36L162.84-17.36Q165.56-20.32 170.10-20.32Q174.64-20.32 177.04-16.80ZM170.28-2.72L170.28-2.72Q171.92-2.72 173.20-3.30Q174.48-3.88 175.40-4.88L175.40-4.88Q177.20-6.96 177.20-10.16L177.20-10.16Q177.20-13.36 175.40-15.44L175.40-15.44Q173.44-17.60 170.28-17.60L170.28-17.60Q167.04-17.60 165.08-15.44L165.08-15.44Q163.20-13.32 163.20-10.16L163.20-10.16Q163.20-7 165.08-4.88L165.08-4.88Q167.04-2.72 170.28-2.72Z M204.76-20L204.76-16.96Q206.76-20.32 210.84-20.32L210.84-20.32Q212.84-20.32 214.54-19.26Q216.24-18.20 217.20-16.28L217.20-16.28Q218.56-18.80 221.44-19.88L221.44-19.88Q222.60-20.32 224.06-20.32Q225.52-20.32 226.86-19.74Q228.20-19.16 229.24-18.08L229.24-18.08Q231.48-15.68 231.48-12.08L231.48-12.08L231.48 0L228.48 0L228.48-12Q228.48-14.48 227.08-16.08L227.08-16.08Q225.68-17.60 223.52-17.60L223.52-17.60Q221.24-17.60 219.72-16.12L219.72-16.12Q218.12-14.60 218.12-11.96L218.12-11.96L218.12 0L215.12 0L215.12-12Q215.12-14.48 213.72-16.08L213.72-16.08Q212.32-17.60 210.16-17.60L210.16-17.60Q207.88-17.60 206.36-16.12L206.36-16.12Q204.76-14.60 204.76-11.96L204.76-11.96L204.76 0L201.76 0L201.76-20L204.76-20Z M256.08 0L256.08-3.20Q253.68 0.32 248.92 0.32L248.92 0.32Q244.60 0.32 241.88-2.68L241.88-2.68Q239.24-5.64 239.24-10L239.24-10Q239.24-14.36 241.88-17.32L241.88-17.32Q244.60-20.32 249.12-20.32Q253.64-20.32 256.08-16.76L256.08-16.76L256.08-20L259.08-20L259.08 0L256.08 0ZM249.32-2.40L249.32-2.40Q252.56-2.40 254.44-4.64L254.44-4.64Q256.24-6.76 256.24-10L256.24-10Q256.24-13.24 254.44-15.36L254.44-15.36Q252.56-17.60 249.32-17.60L249.32-17.60Q246.12-17.60 244.12-15.36L244.12-15.36Q242.24-13.24 242.24-10L242.24-10Q242.24-6.76 244.12-4.64L244.12-4.64Q246.12-2.40 249.32-2.40Z M283.88-16.80L283.88-16.80L283.88-20L286.88-20L286.88-0.60Q286.88 3.72 284.42 5.98Q281.96 8.24 277.80 8.24Q273.64 8.24 271.30 6.64Q268.96 5.04 268.12 2.40L268.12 2.40L271.44 2.40Q272.72 5.52 277.28 5.52L277.28 5.52Q280.76 5.52 282.32 3.92Q283.88 2.32 283.88-0.80L283.88-0.80L283.88-3.56Q281.44 0 276.72 0L276.72 0Q272.40 0 269.68-2.96L269.68-2.96Q267.04-5.84 267.04-10.16L267.04-10.16Q267.04-14.48 269.68-17.36L269.68-17.36Q272.40-20.32 276.94-20.32Q281.48-20.32 283.88-16.80ZM277.12-2.72L277.12-2.72Q278.76-2.72 280.04-3.30Q281.32-3.88 282.24-4.88L282.24-4.88Q284.04-6.96 284.04-10.16L284.04-10.16Q284.04-13.36 282.24-15.44L282.24-15.44Q280.28-17.60 277.12-17.60L277.12-17.60Q273.88-17.60 271.92-15.44L271.92-15.44Q270.04-13.32 270.04-10.16L270.04-10.16Q270.04-7 271.92-4.88L271.92-4.88Q273.88-2.72 277.12-2.72Z M296.08 0L296.08-20L299.08-20L299.08 0L296.08 0ZM295.96-27.28L299.20-27.28L299.20-23.36L295.96-23.36L295.96-27.28Z M317.52-2.40L317.52-2.40Q319.44-2.40 320.92-3.48Q322.40-4.56 323.08-6.28L323.08-6.28L326.32-6.28Q325.40-3.32 322.96-1.52L322.96-1.52Q320.40 0.32 316.88 0.32L316.88 0.32Q312.48 0.32 309.72-2.68L309.72-2.68Q307.04-5.60 307.04-10L307.04-10Q307.04-14.40 309.72-17.32L309.72-17.32Q312.48-20.32 316.88-20.32L316.88-20.32Q320.40-20.32 322.96-18.48L322.96-18.48Q325.40-16.68 326.32-13.72L326.32-13.72L323.08-13.72Q322.40-15.44 320.92-16.52Q319.44-17.60 317.52-17.60Q315.60-17.60 314.26-17Q312.92-16.40 312-15.36L312-15.36Q310.04-13.20 310.04-10L310.04-10Q310.04-6.80 312-4.64L312-4.64Q314-2.40 317.52-2.40Z"/></g>
</svg>
</g><g opacity="1" transform="rotate(0 715.7294 1124.387)">
<svg width="282.2589" height="120" x="715.7294" y="1124.387" version="1.1" preserveAspectRatio="none" viewBox="2.8711 -28.0078 65.8789 28.0078">
  <g transform="matrix(1 0 0 1 0 0)" class="companyName"><path id="id-D6z1nYkh3" d="M30.86-18.59L30.86-16.29Q30.86-14.55 30.43-13.18Q30-11.82 29.27-10.77Q28.54-9.73 27.58-8.98Q26.62-8.24 25.58-7.77Q24.53-7.30 23.47-7.09Q22.40-6.88 21.46-6.88L21.46-6.88L9.98-6.88L9.98-11.95L21.46-11.95Q22.44-12.03 23.23-12.35Q24.02-12.68 24.59-13.22Q25.16-13.77 25.47-14.54Q25.78-15.31 25.78-16.29L25.78-16.29L25.78-18.59Q25.68-19.55 25.37-20.35Q25.06-21.15 24.52-21.72Q23.98-22.29 23.22-22.61Q22.46-22.93 21.46-22.93L21.46-22.93L10.02-22.93Q9.00-22.93 8.48-22.40Q7.95-21.88 7.95-20.88L7.95-20.88L7.95 0L2.87 0L2.87-20.88Q2.87-22.83 3.58-24.20Q4.30-25.57 5.36-26.41Q6.43-27.25 7.68-27.63Q8.93-28.01 9.98-28.01L9.98-28.01L21.46-28.01Q23.18-28.01 24.55-27.57Q25.92-27.13 26.96-26.40Q28.01-25.66 28.74-24.71Q29.47-23.75 29.95-22.71Q30.43-21.66 30.64-20.60Q30.86-19.53 30.86-18.59L30.86-18.59Z M60.27-5.08L60.27 0L41.95 0Q41.25 0 40.44-0.17Q39.63-0.33 38.84-0.68Q38.05-1.04 37.32-1.59Q36.60-2.15 36.04-2.94Q35.49-3.73 35.16-4.78Q34.82-5.82 34.82-7.13L34.82-7.13L34.82-20.88Q34.82-21.58 34.99-22.39Q35.16-23.20 35.51-23.99Q35.86-24.79 36.43-25.51Q36.99-26.23 37.78-26.79Q38.57-27.34 39.61-27.68Q40.64-28.01 41.95-28.01L41.95-28.01L60.27-28.01L60.27-22.93L41.95-22.93Q40.96-22.93 40.43-22.40Q39.90-21.88 39.90-20.84L39.90-20.84L39.90-7.13Q39.90-6.15 40.44-5.62Q40.98-5.08 41.95-5.08L41.95-5.08L60.27-5.08Z M68.75-2.56L68.75-2.56Q68.75-2.03 68.54-1.57Q68.34-1.11 68.00-0.77Q67.66-0.43 67.20-0.23Q66.74-0.04 66.23-0.04L66.23-0.04Q65.70-0.04 65.24-0.23Q64.79-0.43 64.44-0.77Q64.10-1.11 63.91-1.57Q63.71-2.03 63.71-2.56L63.71-2.56Q63.71-3.07 63.91-3.53Q64.10-3.98 64.44-4.33Q64.79-4.67 65.24-4.87Q65.70-5.08 66.23-5.08L66.23-5.08Q66.74-5.08 67.20-4.87Q67.66-4.67 68.00-4.33Q68.34-3.98 68.54-3.53Q68.75-3.07 68.75-2.56Z"/></g>
</svg>
</g><g opacity="1" transform="rotate(0 786.2941 935.9259)">
<svg width="141.1295" height="158.4611" x="786.2941" y="935.9259" version="1.1" preserveAspectRatio="none" viewBox="43 36 114 128">
  <g transform="matrix(1 0 0 1 0 0)" ><g><path d="M157 146.667V160a4 4 0 0 1-8 0v-13.333C149 134.168 138.906 124 126.5 124h-53C61.094 124 51 134.168 51 146.667V160a4 4 0 0 1-8 0v-13.333C43 129.757 56.683 116 73.5 116h53c16.817 0 30.5 13.757 30.5 30.667zm-87.5-80C69.5 49.757 83.183 36 100 36s30.5 13.757 30.5 30.667c0 16.909-13.683 30.666-30.5 30.666S69.5 83.576 69.5 66.667zm8 0c0 12.498 10.094 22.666 22.5 22.666s22.5-10.168 22.5-22.666C122.5 54.168 112.406 44 100 44S77.5 54.168 77.5 66.667z" data-color="1" class="icon1"></path></g></g>
</svg>
</g></svg></svg>